# xmcd
# Copyright (C) 1995-1998 Ti Kan
#
# Track frame offsets:
#       150
#       14714
#       29684
#       44430
#       75762
#       108663
#       149117
#       185762
#
# Disc length: 2820 seconds
#
# Revision: 0
# Processed by: cddbd v1.5.2PL0 Copyright (c) Steve Scherf et al.
# Submitted via: CD-Import v1.0
#
DISCID=730b0208
DTITLE=Faithless - Not Going Home
DYEAR=2010
DGENRE=
TTITLE0=Not Going Home (Radio Edit)
TTITLE1=Not Going Home (Eric Prydz Radio Edit)
TTITLE2=Not Going Home (Rollo and Sister Bliss Monster Acid Club Mix - Radio Edit)
TTITLE3=Not Going Home
TTITLE4=Not Going Home (Rollo and Sister Bliss Monster Acid Club Mix)
TTITLE5=Not Going Home (Eric Prydz Remix)
TTITLE6=Not Going Home (Armin Van Buuren Remix)
TTITLE7=Not Going Home (Hervé Heat Up The Club Remix)
EXTD=
EXTT0=
EXTT1=
EXTT2=
EXTT3=
EXTT4=
EXTT5=
EXTT6=
EXTT7=
PLAYORDER=
